<?xml version="1.0" encoding="utf-8"?>
<!-- Generator: Adobe Illustrator 16.0.0, SVG Export Plug-In . SVG Version: 6.00 Build 0)  -->
<!DOCTYPE svg PUBLIC "-//W3C//DTD SVG 1.1//EN" "http://www.w3.org/Graphics/SVG/1.1/DTD/svg11.dtd">
<svg version="1.1" id="Layer_1" xmlns="http://www.w3.org/2000/svg" xmlns:xlink="http://www.w3.org/1999/xlink" x="0px" y="0px"
	 width="20.309px" height="23.975px" viewBox="0 0 20.309 23.975" enable-background="new 0 0 20.309 23.975" xml:space="preserve">
<path fill="#EFEFEF" d="M11.789,13.574c0.881,0,4.551,1.596,4.551,1.596s-3.67,1.596-4.551,1.596c-0.883,0-1.596-0.713-1.596-1.596
	C10.193,14.29,10.906,13.574,11.789,13.574z M17.403,10.173c0.491,1.032,0.771,2.185,0.771,3.401c0,4.402-3.58,7.979-7.98,7.979
	c-4.4,0-7.979-3.577-7.979-7.979c0-1.216,0.281-2.367,0.772-3.4C2.417,9.721,2.09,9.209,2.09,8.665c0-1.017,1.121-1.924,2.881-2.534
	c-0.34-0.857-0.683-1.728-0.683-1.76c0-1.075,2.644-1.947,5.905-1.947c3.261,0,5.905,0.872,5.905,1.946
	c0,0.032-0.304,0.922-0.604,1.79c1.712,0.609,2.802,1.503,2.802,2.504C18.295,9.208,17.968,9.719,17.403,10.173z M5.145,6.478
	C5.419,7.21,5.654,7.832,5.654,7.832s1.01,1.144,4.629,1.144c3.62,0,4.628-1.144,4.628-1.144s0.19-0.58,0.419-1.279
	c-0.541,0.327-1.973,0.949-5.034,0.949C6.975,7.504,5.573,6.771,5.145,6.478z M16.574,10.702c-0.567,0.297-1.254,0.551-2.033,0.757
	c0.265,0.218,0.44,0.547,0.44,0.918c0,0.661-0.538,1.197-1.197,1.197c-0.661,0-1.197-0.536-1.197-1.197
	c0-0.207,0.056-0.398,0.15-0.568c-0.802,0.108-1.655,0.169-2.544,0.169c-0.297,0-0.588-0.007-0.878-0.019
	c0.05,0.131,0.081,0.271,0.081,0.417c0,0.661-0.536,1.197-1.197,1.197c-0.662,0-1.197-0.536-1.197-1.197
	c0-0.234,0.07-0.451,0.186-0.636c-1.342-0.22-2.503-0.582-3.38-1.041c-0.287,0.751-0.449,1.568-0.449,2.424
	c0,3.769,3.066,6.833,6.835,6.833c3.77,0,6.835-3.065,6.835-6.833C17.028,12.269,16.865,11.455,16.574,10.702z M8.056,16.999
	c0.48,1.215,1.618,2.07,2.948,2.07c1.328,0,2.467-0.855,2.944-2.07c-0.728,0.684-1.771,1.123-2.944,1.123
	C9.828,18.122,8.782,17.683,8.056,16.999z"/>
</svg>
